<?xml version="1.0" encoding="UTF-8" standalone="no"?>
<!-- Created with Inkscape (http://www.inkscape.org/) -->

<svg
   xmlns:dc="http://purl.org/dc/elements/1.1/"
   xmlns:cc="http://creativecommons.org/ns#"
   xmlns:rdf="http://www.w3.org/1999/02/22-rdf-syntax-ns#"
   xmlns:svg="http://www.w3.org/2000/svg"
   xmlns="http://www.w3.org/2000/svg"
   xmlns:sodipodi="http://sodipodi.sourceforge.net/DTD/sodipodi-0.dtd"
   xmlns:inkscape="http://www.inkscape.org/namespaces/inkscape"
   width="16"
   height="80"
   viewBox="0 0 4.2333333 21.166667"
   version="1.1"
   id="svg8"
   inkscape:version="0.92.3 (2405546, 2018-03-11)"
   sodipodi:docname="waveforms.svg">
  <defs
     id="defs2" />
  <sodipodi:namedview
     id="base"
     pagecolor="#ffffff"
     bordercolor="#666666"
     borderopacity="1.0"
     inkscape:pageopacity="0.0"
     inkscape:pageshadow="2"
     inkscape:zoom="5.6"
     inkscape:cx="3.9182042"
     inkscape:cy="40.672416"
     inkscape:document-units="mm"
     inkscape:current-layer="layer1"
     showgrid="true"
     units="px"
     inkscape:window-width="1858"
     inkscape:window-height="1057"
     inkscape:window-x="54"
     inkscape:window-y="-8"
     inkscape:window-maximized="1">
    <inkscape:grid
       type="xygrid"
       id="grid18"
       empspacing="4"
       dotted="false" />
  </sodipodi:namedview>
  <metadata
     id="metadata5">
    <rdf:RDF>
      <cc:Work
         rdf:about="">
        <dc:format>image/svg+xml</dc:format>
        <dc:type
           rdf:resource="http://purl.org/dc/dcmitype/StillImage" />
        <dc:title />
      </cc:Work>
    </rdf:RDF>
  </metadata>
  <g
     inkscape:label="Layer 1"
     inkscape:groupmode="layer"
     id="layer1"
     transform="translate(0,-275.83332)">
    <path
       id="path3734"
       style="fill:none;stroke:#1d80aa;stroke-width:0.396875;stroke-linecap:square;stroke-linejoin:miter;stroke-miterlimit:4;stroke-dasharray:none;stroke-opacity:1"
       d="m 2.1166666,277.94999 c 0.5767277,1.25478 1.1534555,0 1.1534555,0 m -2.3069111,0 c 0.5767278,-1.25479 1.1534556,0 1.1534556,0"
       inkscape:connector-curvature="0" />
    <path
       style="fill:none;stroke:#1d80aa;stroke-width:0.396875;stroke-linecap:square;stroke-linejoin:miter;stroke-miterlimit:4;stroke-dasharray:none;stroke-opacity:1"
       d="m 0.9359636,282.18333 0.5903514,-0.59035 1.1807033,1.18069 0.5903514,-0.59034"
       id="path3737"
       inkscape:connector-curvature="0" />
    <path
       style="fill:none;stroke:#1d80aa;stroke-width:0.396875;stroke-linecap:square;stroke-linejoin:miter;stroke-miterlimit:4;stroke-dasharray:none;stroke-opacity:1"
       d="m 0.91077814,287.0274 v -1.1807 l 2.36140626,1.1807"
       id="path4544"
       inkscape:connector-curvature="0" />
    <path
       style="fill:none;stroke:#1d80aa;stroke-width:0.396875;stroke-linecap:square;stroke-linejoin:miter;stroke-miterlimit:4;stroke-dasharray:none;stroke-opacity:1;paint-order:normal"
       d="m 0.9359636,291.24036 v -1.18069 h 1.180703 v 1.18069 h 1.1807031"
       id="path4546"
       inkscape:connector-curvature="0" />
    <g
       aria-label="?"
       style="font-style:normal;font-variant:normal;font-weight:bold;font-stretch:normal;font-size:2.99861097px;line-height:1.25;font-family:Roboto;-inkscape-font-specification:'Roboto, Bold';font-variant-ligatures:normal;font-variant-caps:normal;font-variant-numeric:normal;font-feature-settings:normal;text-align:center;letter-spacing:0px;word-spacing:0px;writing-mode:lr-tb;text-anchor:middle;fill:#1d80aa;fill-opacity:1;stroke:none;stroke-width:0.22489582"
       id="text4554"
       transform="matrix(1.0253906,0,0,1.0253906,-0.05374378,-7.487275)">
      <path
         d="m 1.8992383,295.3006 q 0,-0.20499 0.049782,-0.32651 0.049782,-0.12153 0.1815565,-0.23866 0.1332391,-0.1186 0.1771641,-0.19181 0.043925,-0.0747 0.043925,-0.15666 0,-0.24745 -0.2284098,-0.24745 -0.1083483,0 -0.1742357,0.0674 -0.064423,0.0659 -0.067352,0.18303 h -0.424608 q 0.00293,-0.27966 0.1800923,-0.43779 0.1786282,-0.15813 0.486103,-0.15813 0.3104031,0 0.4817105,0.15081 0.1713073,0.14934 0.1713073,0.42314 0,0.12446 -0.055638,0.23573 -0.055638,0.10982 -0.194734,0.24452 l -0.1185974,0.11274 q -0.1112766,0.10688 -0.1273824,0.25037 l -0.00586,0.0893 z m -0.042461,0.44949 q 0,-0.0981 0.065887,-0.16105 0.067352,-0.0644 0.1713074,-0.0644 0.1039557,0 0.1698432,0.0644 0.067352,0.063 0.067352,0.16105 0,0.0966 -0.065887,0.1596 -0.064423,0.063 -0.1713074,0.063 -0.1068841,0 -0.1727715,-0.063 -0.064423,-0.063 -0.064424,-0.1596 z"
         style="font-style:normal;font-variant:normal;font-weight:bold;font-stretch:normal;font-size:2.99861097px;font-family:Roboto;-inkscape-font-specification:'Roboto, Bold';font-variant-ligatures:normal;font-variant-caps:normal;font-variant-numeric:normal;font-feature-settings:normal;text-align:center;writing-mode:lr-tb;text-anchor:middle;fill:#1d80aa;fill-opacity:1;stroke-width:0.22489582"
         id="path4526"
         inkscape:connector-curvature="0" />
    </g>
  </g>
</svg>
